<svg width="64" height="32" viewBox="0 0 64 32" fill="none" xmlns="http://www.w3.org/2000/svg">
<path fill-rule="evenodd" clip-rule="evenodd" d="M32.9045 7.60094C32.8316 7.15814 32.4488 6.83325 32 6.83325C31.5513 6.83325 31.1685 7.15814 31.0956 7.60094L30.6282 10.4385C30.274 12.5886 28.5888 14.2739 26.4386 14.6281L23.6011 15.0954C23.1583 15.1684 22.8334 15.5512 22.8334 15.9999C22.8334 16.4487 23.1583 16.8315 23.6011 16.9044L26.4386 17.3718C28.5888 17.726 30.274 19.4112 30.6282 21.5614L31.0956 24.3989C31.1685 24.8417 31.5513 25.1666 32 25.1666C32.4488 25.1666 32.8316 24.8417 32.9045 24.3989L33.3719 21.5614C33.7261 19.4112 35.4113 17.726 37.5615 17.3718L40.399 16.9044C40.8418 16.8315 41.1667 16.4487 41.1667 15.9999C41.1667 15.5512 40.8418 15.1684 40.399 15.0954L37.5615 14.6281C35.4113 14.2739 33.7261 12.5886 33.3719 10.4385L32.9045 7.60094Z" fill="#080808"/>
<path fill-rule="evenodd" clip-rule="evenodd" d="M25.5834 10.4999L23.75 8.66661L24.7223 7.69434L26.5556 9.52767L25.5834 10.4999Z" fill="#080808"/>
<path fill-rule="evenodd" clip-rule="evenodd" d="M25.5834 21.5001L23.75 23.3334L24.7223 24.3057L26.5556 22.4723L25.5834 21.5001Z" fill="#080808"/>
<path fill-rule="evenodd" clip-rule="evenodd" d="M38.4166 10.4999L40.25 8.66661L39.2777 7.69434L37.4444 9.52767L38.4166 10.4999Z" fill="#080808"/>
<path fill-rule="evenodd" clip-rule="evenodd" d="M38.4166 21.5001L40.25 23.3334L39.2777 24.3057L37.4444 22.4723L38.4166 21.5001Z" fill="#080808"/>
</svg>
