<svg width="24" height="24" viewBox="0 0 24 24" fill="none" xmlns="http://www.w3.org/2000/svg">
<path fill-rule="evenodd" clip-rule="evenodd" d="M12.9044 3.60118C12.8315 3.15839 12.4487 2.8335 11.9999 2.8335C11.5512 2.8335 11.1684 3.15839 11.0954 3.60118L10.6281 6.43872C10.2739 8.58889 8.58864 10.2741 6.43848 10.6283L3.60094 11.0957C3.15814 11.1686 2.83325 11.5514 2.83325 12.0002C2.83325 12.4489 3.15814 12.8317 3.60094 12.9046L6.43848 13.372C8.58864 13.7262 10.2739 15.4114 10.6281 17.5616L11.0954 20.3991C11.1684 20.8419 11.5512 21.1668 11.9999 21.1668C12.4487 21.1668 12.8315 20.8419 12.9044 20.3991L13.3718 17.5616C13.7259 15.4114 15.4112 13.7262 17.5614 13.372L20.3989 12.9046C20.8417 12.8317 21.1666 12.4489 21.1666 12.0002C21.1666 11.5514 20.8417 11.1686 20.3989 11.0957L17.5614 10.6283C15.4112 10.2741 13.7259 8.58889 13.3718 6.43872L12.9044 3.60118Z" fill="#DE3B35"/>
</svg>
