<svg width="24" height="24" viewBox="0 0 24 24" fill="none" xmlns="http://www.w3.org/2000/svg">
<path d="M18.4167 2.8335C18.9227 2.8335 19.3333 3.24416 19.3333 3.75016V7.19408L11.0843 15.4441L11.0788 19.3289L14.9709 19.3344L19.3333 14.972V20.2502C19.3333 20.7562 18.9227 21.1668 18.4167 21.1668H4.66667C4.16067 21.1668 3.75 20.7562 3.75 20.2502V3.75016C3.75 3.24416 4.16067 2.8335 4.66667 2.8335H18.4167ZM20.0465 9.07416L21.3427 10.3703L14.2128 17.5002L12.9148 17.4983L12.9167 16.204L20.0465 9.07416ZM11.0833 12.0002H7.41667V13.8335H11.0833V12.0002ZM13.8333 8.3335H7.41667V10.1668H13.8333V8.3335Z" fill="#DE3B35"/>
</svg>
