<svg width="72" height="18" viewBox="0 0 72 18" fill="none" xmlns="http://www.w3.org/2000/svg">
<g clip-path="url(#clip0_8711_7443)">
<path d="M69.751 15.2255V16.1998H56.2754V15.2255H61.2844V3.42105H56.896V0.362305H69.1304V3.42105H64.742V15.2255H69.751Z" fill="#141414"/>
<path d="M43.6792 15.2255V0.362305H54.8497V3.51168H47.1367V6.77433H54.074V9.78776H47.1367V13.0731H55.0935V15.2255H57.2434V16.1998H41.5293V15.2255H43.6792Z" fill="#141414"/>
<path d="M41.7792 15.2257V16.2H27.6387V15.2257H30.6529C29.8403 14.8028 29.1015 14.259 28.4366 13.5944L30.4978 11.0115C32.1675 12.5069 33.7116 13.2545 35.13 13.2545C35.7654 13.2545 36.2604 13.1186 36.615 12.8467C36.9844 12.5597 37.1691 12.1821 37.1691 11.7138C37.1691 11.2305 36.977 10.8529 36.5928 10.581C36.2087 10.294 35.4477 10.007 34.31 9.72C32.5073 9.28196 31.1849 8.71553 30.3427 8.0207C29.5152 7.31077 29.1015 6.20811 29.1015 4.71273C29.1015 3.20224 29.626 2.03916 30.6751 1.2235C31.739 0.407833 33.0614 0 34.6424 0C35.6767 0 36.7111 0.181259 37.7454 0.543776C38.7797 0.906294 39.681 1.41986 40.4493 2.08448L38.6984 4.66741C37.3538 3.62518 35.9649 3.10406 34.5316 3.10406C33.9554 3.10406 33.4973 3.24755 33.1575 3.53455C32.8324 3.80643 32.6699 4.1765 32.6699 4.64475C32.6699 5.0979 32.8693 5.46042 33.2683 5.73231C33.682 6.0042 34.6203 6.32895 36.0831 6.70657C37.5607 7.06909 38.7058 7.62042 39.5185 8.36056C40.3311 9.1007 40.7375 10.1278 40.7375 11.442C40.7375 13.0733 40.1391 14.3345 38.9422 15.2257H41.7792Z" fill="#141414"/>
<path d="M11.4292 15.2255V0.362305H14.6651L22.2673 10.5581V0.362305H25.7248V15.2255H27.8747V16.1998H22.2673L14.8867 6.27587V16.1998H9.2793V15.2255H11.4292Z" fill="#141414"/>
<path d="M9.51973 15.2255V16.1998H2.25V15.2255H4.15609V0.362305H7.61364V15.2255H9.51973Z" fill="#141414"/>
</g>
<defs>
<clipPath id="clip0_8711_7443">
<rect width="67.5003" height="16.2" fill="white" transform="translate(2.25)"/>
</clipPath>
</defs>
</svg>
