<svg width="46" height="16" viewBox="0 0 46 16" fill="none" xmlns="http://www.w3.org/2000/svg">
<g clip-path="url(#clip0_9013_18833)">
<path d="M24.8924 8.53509H22.6174V5.49613H21.5568V8.53509H19.2511V2.7221H18.9744C18.8002 2.7221 18.6721 2.79483 18.5901 2.94028C18.5183 3.07535 18.4569 3.26236 18.4056 3.50132L17.2374 8.53509H14.9316L16.2382 2.94028C16.3305 2.54548 16.4278 2.20782 16.5303 1.9273C16.643 1.63639 16.7865 1.39743 16.9607 1.21041C17.1349 1.0234 17.3552 0.888335 17.6217 0.805218C17.8881 0.711711 18.2314 0.664958 18.6516 0.664958H21.5568V3.31431H22.6174V0.587036H24.8924V8.53509ZM28.5509 14.8H25.6917L23.4782 11.652C23.3655 11.5065 23.2528 11.387 23.1401 11.2935C23.0376 11.2 22.8736 11.1533 22.6482 11.1533H21.7566C21.5312 11.1533 21.3621 11.2 21.2494 11.2935C21.1469 11.387 21.0393 11.5065 20.9266 11.652L18.713 14.8H15.8539L18.5593 10.7792C18.7335 10.5195 18.8924 10.2857 19.0359 10.0779C19.1896 9.87015 19.3587 9.69353 19.5431 9.54807C19.7378 9.40262 19.9684 9.29353 20.2348 9.2208C20.5115 9.13768 20.8548 9.09612 21.2647 9.09612H23.1401C23.55 9.09612 23.8881 9.13768 24.1546 9.2208C24.421 9.29353 24.6516 9.40262 24.8463 9.54807C25.041 9.69353 25.2101 9.87015 25.3536 10.0779C25.5073 10.2857 25.6712 10.5195 25.8455 10.7792L28.5509 14.8ZM27.8899 8.84677H25.5995V0.587036H27.8899V8.84677Z" fill="#ED5F5A"/>
<path d="M13.668 14.7689H2.55435V9.626H5.10603V12.587H13.668V14.7689ZM13.5758 10.9818H11.0241V0.587037H13.5758V10.9818ZM9.85584 5.60522C9.85584 6.16626 9.74824 6.65976 9.53304 7.08574C9.31784 7.51171 9.02578 7.87015 8.65686 8.16106C8.28794 8.44158 7.85242 8.65457 7.35028 8.80002C6.84814 8.93509 6.30501 9.00262 5.72089 9.00262C5.13677 9.00262 4.59364 8.93509 4.0915 8.80002C3.58937 8.65457 3.15384 8.44158 2.78492 8.16106C2.416 7.87015 2.12394 7.51171 1.90874 7.08574C1.69354 6.65976 1.58594 6.16626 1.58594 5.60522V3.79743C1.58594 3.23639 1.69354 2.74288 1.90874 2.31691C2.12394 1.89093 2.416 1.53769 2.78492 1.25717C3.15384 0.966258 3.58937 0.753271 4.0915 0.618206C4.59364 0.472752 5.13677 0.400024 5.72089 0.400024C6.30501 0.400024 6.84814 0.472752 7.35028 0.618206C7.85242 0.753271 8.28794 0.966258 8.65686 1.25717C9.02578 1.53769 9.31784 1.89093 9.53304 2.31691C9.74824 2.74288 9.85584 3.23639 9.85584 3.79743V5.60522ZM7.30416 4.00002C7.30416 3.49093 7.15557 3.10652 6.85839 2.84678C6.57145 2.58704 6.19229 2.45717 5.72089 2.45717C5.2495 2.45717 4.86521 2.58704 4.56802 2.84678C4.28109 3.10652 4.13762 3.49093 4.13762 4.00002V5.40262C4.13762 5.91171 4.28109 6.29613 4.56802 6.55587C4.86521 6.81561 5.2495 6.94548 5.72089 6.94548C6.19229 6.94548 6.57145 6.81561 6.85839 6.55587C7.15557 6.29613 7.30416 5.91171 7.30416 5.40262V4.00002Z" fill="#ED5F5A"/>
<path d="M43.7739 10.4161L41.0841 7.73632L43.7386 5.09161C44.5061 4.32699 44.5061 3.08691 43.7386 2.32229L42.8097 1.39677C42.7247 1.31208 42.5863 1.31208 42.5 1.39677L38.6009 5.28156L38.2803 4.96216L35.6258 2.31745C34.8583 1.55284 33.6137 1.55284 32.8462 2.31745L31.9173 3.24298C31.8323 3.32767 31.8323 3.4668 31.9173 3.55149L36.998 8.61345C37.0854 8.70056 37.1801 8.77557 37.2797 8.8409C37.3319 8.91349 37.389 8.98366 37.4546 9.04899L42.5353 14.111C42.6203 14.1956 42.7587 14.1956 42.8449 14.111L43.7739 13.1854C44.5413 12.4208 44.5413 11.1807 43.7739 10.4161Z" fill="#ED5F5A"/>
<path d="M33.6099 13.8265L31.8952 12.1181C31.8385 12.0617 31.8385 11.9693 31.8952 11.9128L33.5318 10.2823C34.0401 9.77582 34.8661 9.77582 35.3745 10.2823L36.9338 11.8358C37.0334 11.9351 37.0334 12.0959 36.9338 12.1951L35.2972 13.8257C34.8318 14.2894 34.0753 14.2902 33.6091 13.8257L33.6099 13.8265Z" fill="#ED5F5A"/>
</g>
<defs>
<clipPath id="clip0_9013_18833">
<rect width="46" height="16" fill="white"/>
</clipPath>
</defs>
</svg>
