<svg width="24" height="24" viewBox="0 0 24 24" fill="none" xmlns="http://www.w3.org/2000/svg">
<path d="M7.41667 6.50016V3.75016C7.41667 3.50705 7.51324 3.27389 7.68515 3.10198C7.85706 2.93007 8.09022 2.8335 8.33333 2.8335H19.3333C19.5764 2.8335 19.8096 2.93007 19.9815 3.10198C20.1534 3.27389 20.25 3.50705 20.25 3.75016V16.5835C20.25 16.8266 20.1534 17.0598 19.9815 17.2317C19.8096 17.4036 19.5764 17.5002 19.3333 17.5002H16.5833V20.2502C16.5833 20.7562 16.1708 21.1668 15.6603 21.1668H4.67308C4.5522 21.1676 4.43236 21.1444 4.32046 21.0987C4.20856 21.0529 4.1068 20.9855 4.02102 20.9004C3.93524 20.8152 3.86714 20.7139 3.82063 20.6023C3.77412 20.4907 3.75012 20.371 3.75 20.2502L3.75275 7.41683C3.75275 6.91083 4.16525 6.50016 4.67583 6.50016H7.41667ZM9.25 6.50016H16.5833V15.6668H18.4167V4.66683H9.25V6.50016ZM7.41667 11.0835V12.9168H12.9167V11.0835H7.41667ZM7.41667 14.7502V16.5835H12.9167V14.7502H7.41667Z" fill="#DE3B35"/>
</svg>
