<svg width="24" height="24" viewBox="0 0 24 24" fill="none" xmlns="http://www.w3.org/2000/svg">
<path d="M19.7762 15.075L20.9326 15.7039C21.004 15.7426 21.063 15.7974 21.104 15.863C21.145 15.9286 21.1666 16.0027 21.1666 16.0781C21.1666 16.1535 21.145 16.2276 21.104 16.2932C21.063 16.3587 21.004 16.4136 20.9326 16.4523L12.4954 21.0423C12.3457 21.1238 12.1745 21.1668 11.9999 21.1668C11.8254 21.1668 11.6541 21.1238 11.5045 21.0423L3.0672 16.4523C2.99586 16.4136 2.93681 16.3587 2.89581 16.2932C2.8548 16.2276 2.83325 16.1535 2.83325 16.0781C2.83325 16.0027 2.8548 15.9286 2.89581 15.863C2.93681 15.7974 2.99586 15.7426 3.0672 15.7039L4.2236 15.075L11.9999 19.3055L19.7762 15.075V15.075ZM19.7762 10.9752L20.9326 11.6041C21.004 11.6429 21.063 11.6977 21.104 11.7633C21.145 11.8289 21.1666 11.903 21.1666 11.9784C21.1666 12.0537 21.145 12.1278 21.104 12.1934C21.063 12.259 21.004 12.3138 20.9326 12.3526L11.9999 17.2121L3.0672 12.3526C2.99586 12.3138 2.93681 12.259 2.89581 12.1934C2.8548 12.1278 2.83325 12.0537 2.83325 11.9784C2.83325 11.903 2.8548 11.8289 2.89581 11.7633C2.93681 11.6977 2.99586 11.6429 3.0672 11.6041L4.2236 10.9752L11.9999 15.2058L19.7762 10.9752ZM12.4944 2.95807L20.9326 7.54802C21.004 7.58675 21.063 7.64158 21.104 7.70716C21.145 7.77275 21.1666 7.84685 21.1666 7.92223C21.1666 7.99762 21.145 8.07172 21.104 8.13731C21.063 8.20289 21.004 8.25772 20.9326 8.29644L11.9999 13.1559L3.0672 8.29644C2.99586 8.25772 2.93681 8.20289 2.89581 8.13731C2.8548 8.07172 2.83325 7.99762 2.83325 7.92223C2.83325 7.84685 2.8548 7.77275 2.89581 7.70716C2.93681 7.64158 2.99586 7.58675 3.0672 7.54802L11.5045 2.95807C11.6541 2.87656 11.8254 2.8335 11.9999 2.8335C12.1745 2.8335 12.3457 2.87656 12.4954 2.95807H12.4944ZM11.9999 4.7227L6.11885 7.92223L11.9999 11.1218L17.881 7.92223L11.9999 4.7227Z" fill="white"/>
</svg>
