<svg width="25" height="24" viewBox="0 0 25 24" fill="none" xmlns="http://www.w3.org/2000/svg">
<path d="M4.41667 9.70842H3.5V4.21117C3.5 3.70333 3.91708 3.29175 4.40933 3.29175L20.924 3.29175C21.0443 3.2915 21.1635 3.31518 21.2746 3.36142C21.3857 3.40766 21.4865 3.47554 21.5711 3.5611C21.6558 3.64666 21.7225 3.74819 21.7675 3.8598C21.8125 3.9714 21.8349 4.09084 21.8333 4.21117V9.70842H20.9167V19.7927C20.917 19.9126 20.8938 20.0314 20.8482 20.1423C20.8027 20.2532 20.7357 20.354 20.6512 20.4391C20.5667 20.5241 20.4662 20.5917 20.3556 20.6379C20.245 20.6841 20.1263 20.7081 20.0064 20.7084H5.32692C5.20702 20.7081 5.08837 20.6841 4.97774 20.6379C4.8671 20.5917 4.76666 20.5241 4.68213 20.4391C4.59761 20.354 4.53066 20.2532 4.48511 20.1423C4.43956 20.0314 4.41631 19.9126 4.41667 19.7927V9.70842ZM19.0833 9.70842L6.25 9.70842V18.8751H19.0833V9.70842ZM5.33333 5.12508V7.87508H20V5.12508H5.33333ZM9.91667 11.5418H15.4167V13.3751H9.91667V11.5418Z" fill="#4F4F4F"/>
</svg>
